<?xml version="1.0" encoding="UTF-8"?> <svg xmlns="http://www.w3.org/2000/svg" xmlns:xlink="http://www.w3.org/1999/xlink" version="1.1" id="Layer_1" x="0px" y="0px" viewBox="0 0 512.001 512.001" style="enable-background:new 0 0 512.001 512.001;" xml:space="preserve"> <g> <g> <path style="fill:#DEDEE1;" d="M512,331.008H8.986L0,357.182c0,0,6.735,17.964,71.865,17.964h387.169 C459.034,375.146,512.141,371.836,512,331.008"></path> <path style="fill:#DEDEE1;" d="M251.275,203.319L251.275,203.319c-6.894-6.886-6.894-18.07,0-24.964l18.723-18.723 c6.894-6.894,18.07-6.894,24.964,0c6.894,6.894,6.894,18.07,0,24.964l-18.723,18.723 C269.346,210.213,258.161,210.213,251.275,203.319"></path> <path style="fill:#DEDEE1;" d="M304.241,246.388L304.241,246.388c-6.894-6.894-6.894-18.07,0-24.964l18.723-18.723 c6.894-6.894,18.07-6.894,24.964,0c6.894,6.886,6.894,18.07,0,24.964l-18.723,18.723 C322.311,253.282,311.127,253.282,304.241,246.388"></path> </g> <path style="fill:#B0CEE6;" d="M404.207,258.37c-11.299-2.428-32.539-14.548-56.717-30.27l-18.282,18.291 c-6.894,6.894-18.079,6.894-24.964,0c-6.894-6.903-6.894-18.07,0-24.973L317.662,208c-9.057-6.303-18.141-12.756-26.968-19.129 l-14.451,14.451c-6.894,6.894-18.079,6.894-24.964,0c-6.894-6.894-6.894-18.07,0-24.964l10.593-10.602 c-15.837-11.767-29.158-21.919-37.367-28.239c-5.129-3.937-12.367-3.452-16.94,1.121l-18.132,18.132 c-5.394,5.402-5.394,14.159,0,19.571l4.935,4.926c6.091,6.091,4.334,16.587-3.584,19.986C103.619,240.68,62.88,168.55,62.88,168.55 C33.678,163.306,8.987,331.013,8.987,331.013h503.013C512.001,265.141,442.387,266.615,404.207,258.37"></path> <path style="fill:#87B8E3;" d="M50.586,331.008h159.559c37.032-19.2,102.762-33.28,134.135-35.31 c6.109-0.397,19.421-21.839,33.907-48.878c-9.181-5.111-19.588-11.502-30.694-18.714l-18.291,18.282 c-6.894,6.894-18.07,6.894-24.964,0s-6.894-18.07,0-24.964l13.427-13.427c-9.057-6.294-18.15-12.756-26.977-19.129l-14.451,14.451 c-6.894,6.894-18.07,6.894-24.964,0c-6.894-6.886-6.894-18.07,0-24.964l10.602-10.593c-15.837-11.767-29.158-21.928-37.376-28.239 c-5.129-3.946-12.359-3.46-16.94,1.121l-18.123,18.123c-5.402,5.411-5.402,14.168,0,19.571l4.926,4.935 c6.1,6.082,4.334,16.587-3.575,19.977c-4.758,2.048-9.348,3.699-13.833,5.12c-4.935,25.097-10.937,42.726-18.052,43.193 C114.242,254.455,56.492,295.177,50.586,331.008"></path> <path style="fill:#B0CEE6;" d="M256,260.388c0,14.627-11.855,26.483-26.483,26.483s-26.483-11.855-26.483-26.483 c0-14.627,11.855-26.483,26.483-26.483S256,245.76,256,260.388"></path> </g> <g> </g> <g> </g> <g> </g> <g> </g> <g> </g> <g> </g> <g> </g> <g> </g> <g> </g> <g> </g> <g> </g> <g> </g> <g> </g> <g> </g> <g> </g> </svg> 